<?xml version="1.0" standalone="no"?>
<!DOCTYPE svg PUBLIC "-//W3C//DTD SVG 20010904//EN"
 "http://www.w3.org/TR/2001/REC-SVG-20010904/DTD/svg10.dtd">
<svg version="1.0" xmlns="http://www.w3.org/2000/svg"
 width="1280.000000pt" height="1280.000000pt" viewBox="0 0 1280.000000 1280.000000"
 preserveAspectRatio="xMidYMid meet">
<metadata>
Created by potrace 1.15, written by Peter Selinger 2001-2017
</metadata>
<g transform="translate(0.000000,1280.000000) scale(0.100000,-0.100000)"
fill="#2196f3" stroke="none">
<path d="M6100 12794 c-25 -2 -112 -8 -195 -14 -1286 -94 -2543 -599 -3555
-1429 -1761 -1445 -2619 -3683 -2274 -5931 270 -1755 1275 -3332 2760 -4332
1051 -708 2297 -1088 3564 -1088 1267 0 2513 380 3564 1088 1460 982 2456
2522 2746 4245 420 2491 -657 4980 -2765 6392 -890 596 -1891 948 -2985 1051
-153 14 -753 27 -860 18z m826 -539 c729 -68 1389 -251 2030 -564 668 -326
1193 -712 1719 -1262 586 -613 1055 -1404 1322 -2229 339 -1050 372 -2206 93
-3275 -222 -851 -615 -1611 -1196 -2310 -144 -174 -544 -572 -724 -722 -943
-782 -2027 -1231 -3255 -1349 -249 -24 -781 -24 -1030 0 -1229 118 -2313 567
-3255 1349 -188 156 -583 552 -737 737 -377 455 -667 927 -896 1457 -489 1129
-605 2418 -325 3633 310 1348 1097 2553 2212 3388 887 664 1965 1071 3051
1152 243 18 257 18 550 14 154 -2 353 -10 441 -19z"/>
<path d="M4360 9893 c-170 -12 -292 -67 -472 -212 -40 -32 -109 -96 -152 -141
l-79 -82 846 -846 c842 -842 846 -846 872 -832 41 22 143 118 176 166 94 137
123 240 123 434 -1 166 -19 265 -85 459 -51 149 -188 429 -270 551 -71 106
-184 229 -272 297 -68 53 -202 125 -280 152 -112 39 -292 63 -407 54z"/>
<path d="M3507 9253 c-13 -21 -35 -56 -50 -79 l-25 -41 814 -814 814 -814 67
68 68 67 -825 825 c-454 454 -828 825 -832 825 -4 0 -18 -17 -31 -37z"/>
<path d="M3327 8933 c-129 -275 -243 -628 -288 -893 -18 -107 -15 -391 5 -525
83 -536 342 -1122 794 -1790 315 -467 692 -924 947 -1150 892 -788 1833 -1334
2550 -1480 218 -44 486 -58 662 -34 112 15 374 83 543 141 160 55 460 184 460
198 0 3 -363 368 -808 813 l-807 807 -38 -26 c-47 -32 -153 -76 -227 -95 -79
-20 -268 -17 -354 5 -150 40 -283 108 -441 227 -383 287 -1117 1045 -1303
1344 -189 305 -213 598 -71 864 l40 75 -809 809 -808 808 -47 -98z"/>
<path d="M8198 5690 c-176 -32 -320 -121 -425 -263 l-36 -49 844 -844 c464
-464 848 -844 853 -844 20 0 226 222 282 305 111 162 138 235 149 397 18 240
-66 503 -221 696 -125 156 -284 272 -549 402 -293 143 -488 199 -710 205 -77
2 -161 0 -187 -5z"/>
<path d="M7547 5152 l-67 -67 814 -814 814 -814 76 47 c41 26 78 51 80 55 3 4
-367 379 -822 834 l-827 827 -68 -68z"/>
</g>
</svg>
