<?xml version="1.0" standalone="no"?>
<!DOCTYPE svg PUBLIC "-//W3C//DTD SVG 20010904//EN"
 "http://www.w3.org/TR/2001/REC-SVG-20010904/DTD/svg10.dtd">
<svg version="1.0" xmlns="http://www.w3.org/2000/svg"
 width="1280.000000pt" height="1134.000000pt" viewBox="0 0 1280.000000 1134.000000"
 preserveAspectRatio="xMidYMid meet">
<metadata>
Created by potrace 1.15, written by Peter Selinger 2001-2017
</metadata>
<g transform="translate(0.000000,1134.000000) scale(0.100000,-0.100000)"
fill="#2196f3" stroke="none">
<path d="M9940 11334 c-954 -68 -2152 -351 -3815 -901 -1484 -491 -3465 -1260
-5160 -2005 -137 -61 -281 -121 -320 -135 -217 -78 -383 -234 -495 -467 -57
-118 -92 -234 -123 -401 l-22 -120 0 -2534 0 -2533 1790 -1084 c984 -596 1805
-1100 1825 -1119 36 -35 36 -35 128 -35 83 0 92 2 92 19 0 13 15 25 47 39 42
18 812 337 3223 1338 377 156 1810 751 3185 1322 l2500 1038 3 2424 c3 2511 3
2554 -38 2774 -164 893 -710 1637 -1580 2154 -203 120 -346 170 -601 208 -101
14 -518 26 -639 18z m435 -304 c331 -23 465 -66 737 -236 735 -460 1209 -1121
1348 -1880 40 -217 41 -281 38 -2657 l-3 -2298 -4310 -1790 c-2371 -984 -4318
-1791 -4327 -1795 -17 -5 -18 117 -18 2463 0 1595 -4 2506 -10 2575 -87 912
-589 1744 -1405 2329 -315 226 -751 455 -987 519 -27 7 -48 15 -48 19 0 3 143
66 318 140 4164 1763 7293 2705 8667 2611z m-9270 -2995 c103 -14 234 -49 320
-84 l50 -20 -282 0 -283 -1 0 29 c0 16 -3 43 -6 60 l-6 31 53 0 c30 0 99 -7
154 -15z"/>
<path d="M10125 6526 c-4263 -1799 -4926 -2078 -5035 -2116 -299 -103 -458
-243 -435 -381 14 -82 123 -195 250 -258 l44 -22 1118 472 c615 259 1325 558
1577 665 252 107 462 194 465 194 3 0 3 -154 0 -342 -4 -189 -12 -640 -18
-1003 -7 -363 -13 -677 -14 -697 -1 -21 2 -38 8 -38 5 1 503 209 1105 463
l1095 463 22 314 c12 173 36 509 52 745 17 237 49 689 71 1005 22 316 42 599
45 628 3 28 2 52 -2 52 -5 0 -161 -65 -348 -144z"/>
</g>
</svg>
